<?xml version="1.0" standalone="no"?>
<!DOCTYPE svg PUBLIC "-//W3C//DTD SVG 20010904//EN"
 "http://www.w3.org/TR/2001/REC-SVG-20010904/DTD/svg10.dtd">
<svg version="1.0" xmlns="http://www.w3.org/2000/svg"
 width="1200.000000pt" height="1200.000000pt" viewBox="0 0 1200.000000 1200.000000"
 preserveAspectRatio="xMidYMid meet">

<g transform="translate(0.000000,1200.000000) scale(0.100000,-0.100000)"
fill="#000000" stroke="none">
<path d="M3507 9840 c-498 -59 -929 -342 -1180 -775 -83 -142 -143 -306 -184
-495 -17 -81 -18 -208 -18 -2625 l0 -2540 22 -101 c67 -299 200 -553 403 -767
222 -234 495 -386 829 -460 l96 -21 2480 -4 c1797 -2 2507 0 2580 8 268 31
523 132 757 300 92 66 263 242 336 345 123 174 224 412 269 635 16 79 17 269
21 2535 2 1774 0 2481 -8 2563 -57 571 -415 1060 -940 1285 -104 44 -192 72
-319 100 l-96 21 -2490 2 c-1369 1 -2521 -2 -2558 -6z m5118 -257 c269 -63
482 -179 665 -363 188 -188 309 -415 367 -690 17 -80 18 -220 18 -2580 0
-2408 -1 -2498 -19 -2585 -22 -106 -76 -265 -116 -345 -162 -320 -468 -577
-805 -675 -198 -57 -69 -55 -2715 -55 -2071 0 -2449 2 -2530 15 -554 84 -984
491 -1107 1047 -17 79 -18 203 -18 2598 0 2418 1 2518 19 2600 116 529 520
931 1041 1034 44 8 98 17 120 19 22 2 1154 3 2515 3 l2475 -2 90 -21z"/>
<path d="M3900 9244 c-14 -2 -59 -9 -100 -15 -97 -14 -265 -68 -360 -116 -175
-89 -345 -231 -466 -392 -109 -145 -197 -346 -236 -541 -20 -99 -19 -4364 1
-4465 50 -256 167 -478 348 -666 190 -197 409 -317 683 -376 81 -17 191 -18
2250 -18 2073 0 2169 1 2250 19 523 115 903 491 1022 1014 22 97 22 98 25
1309 4 1208 4 1212 -17 1233 -25 25 -51 26 -79 3 l-21 -18 -3 -1215 c-3 -1104
-5 -1221 -20 -1285 -63 -255 -179 -462 -353 -624 -181 -169 -404 -276 -649
-311 -45 -6 -828 -10 -2160 -10 -2290 0 -2173 -3 -2363 59 -350 115 -634 397
-751 747 -64 192 -61 57 -61 2365 0 1438 3 2122 11 2175 65 470 415 855 893
982 l101 27 2123 5 c2088 5 2124 5 2138 24 19 27 18 52 -6 76 -20 20 -32 20
-2097 19 -1143 -1 -2089 -3 -2103 -5z"/>
<path d="M7700 7683 c-269 -42 -480 -156 -705 -380 -86 -85 -205 -236 -239
-301 -10 -19 -19 -32 -20 -30 -2 1 -27 68 -56 148 -29 80 -56 149 -61 154 -4
5 -116 -31 -248 -80 l-241 -89 -114 -115 -114 -115 80 -214 c43 -117 77 -215
75 -217 -2 -2 -143 88 -313 200 l-309 204 -35 -14 c-19 -7 -226 -83 -460 -169
l-425 -156 -112 -112 c-62 -61 -113 -115 -113 -119 0 -4 86 -241 191 -525 106
-285 200 -547 210 -583 25 -85 25 -151 0 -181 -17 -21 -27 -24 -93 -24 -59 1
-83 6 -124 27 -62 33 -114 89 -152 165 -16 32 -116 294 -222 583 -106 289
-196 528 -199 532 -4 4 -117 -33 -251 -83 l-245 -90 -113 -112 -113 -113 194
-524 c107 -289 208 -559 226 -601 53 -128 126 -236 225 -335 77 -76 107 -99
186 -138 169 -83 349 -97 561 -42 236 60 338 124 575 360 100 100 192 196 205
213 l24 33 44 -118 c24 -64 47 -121 51 -125 3 -4 117 33 251 83 l245 91 112
112 112 112 -70 190 c-39 105 -79 214 -90 243 -13 35 -16 51 -8 46 7 -4 155
-102 328 -217 173 -116 321 -212 330 -214 8 -2 103 28 210 67 l195 71 113 112
c115 114 117 117 96 170 -4 11 12 9 78 -10 103 -31 299 -42 415 -23 144 23
311 91 447 182 157 105 377 370 468 564 103 220 123 477 58 727 -86 329 -341
620 -637 727 -136 49 -311 71 -423 53z m305 -157 c250 -68 462 -261 576 -526
64 -148 74 -204 74 -395 0 -166 -1 -172 -33 -264 -103 -296 -334 -493 -644
-547 -303 -53 -611 82 -804 352 -58 82 -129 233 -155 330 -27 102 -36 300 -19
398 60 340 310 592 661 666 64 13 274 5 344 -14z m-1175 -1207 c159 -431 294
-794 299 -805 9 -20 3 -24 -86 -58 -52 -20 -102 -36 -110 -36 -8 0 -320 204
-694 454 -373 250 -679 450 -679 446 0 -5 101 -284 225 -621 124 -336 225
-614 225 -618 0 -10 -224 -90 -232 -82 -5 5 -411 1098 -564 1518 l-33 91 114
42 c63 23 121 40 128 37 7 -3 299 -193 648 -422 349 -230 644 -424 656 -433
l23 -14 -14 38 c-8 22 -107 290 -220 598 -113 307 -206 561 -206 565 0 7 222
92 227 87 2 -1 133 -355 293 -787z m-1723 -301 c100 -271 191 -529 203 -573
61 -231 26 -441 -97 -592 -82 -99 -264 -208 -423 -252 -359 -100 -627 18 -801
353 -23 44 -124 301 -224 572 l-182 493 114 42 c64 23 118 38 122 33 5 -5 86
-220 181 -479 95 -258 182 -488 193 -510 102 -204 286 -309 485 -275 176 29
320 144 373 298 23 67 27 200 8 277 -7 28 -92 268 -191 534 -98 266 -177 485
-176 487 5 5 213 83 223 83 6 1 92 -221 192 -491z"/>
<path d="M7703 7309 c-29 -5 -81 -20 -114 -34 -214 -87 -332 -252 -346 -485
-16 -277 136 -571 356 -689 86 -45 150 -61 253 -61 260 0 487 180 539 429 15
71 6 257 -15 334 -41 150 -148 318 -249 395 -135 102 -269 137 -424 111z m-12
-379 c35 -11 85 -36 111 -55 181 -134 297 -485 205 -624 -36 -55 -93 -75 -192
-69 -174 11 -318 139 -398 352 -27 72 -30 94 -31 196 -1 106 1 118 23 149 50
69 160 89 282 51z"/>
<path d="M9222 7554 c-21 -14 -22 -22 -22 -163 0 -131 2 -150 18 -164 25 -23
58 -21 82 3 18 18 20 33 20 160 0 127 -2 142 -20 160 -24 24 -48 25 -78 4z"/>
<path d="M9222 7074 c-22 -15 -22 -18 -22 -283 0 -247 1 -269 18 -284 25 -23
58 -21 82 3 19 19 20 33 20 280 0 247 -1 261 -20 280 -24 24 -48 25 -78 4z"/>
</g>
</svg>
